<svg xmlns="http://www.w3.org/2000/svg" width="33" height="40" viewBox="0 0 33 40">
    <g fill="#FFF" fill-rule="evenodd">
        <path d="M27.56 20.856c-.046-5.17 4.188-7.651 4.38-7.772-2.383-3.514-6.092-3.995-7.415-4.052-3.154-.322-6.158 1.872-7.757 1.872-1.599 0-4.071-1.825-6.687-1.774-3.443.052-6.613 2.016-8.385 5.12-3.574 6.248-.912 15.507 2.567 20.578 1.703 2.48 3.731 5.272 6.398 5.17 2.57-.104 3.54-1.674 6.64-1.674 3.102 0 3.975 1.673 6.69 1.624 2.761-.054 4.514-2.533 6.205-5.02 1.95-2.877 2.758-5.663 2.804-5.81-.061-.025-5.384-2.082-5.44-8.262"/>
        <path d="M22.905 6.226C24.283 4.577 25.214 2.285 24.958 0c-1.986.079-4.39 1.307-5.815 2.956-1.277 1.457-2.396 3.79-2.093 6.029 2.215.17 4.476-1.113 5.855-2.76"/>
    </g>
</svg>
