<svg xmlns="http://www.w3.org/2000/svg" xmlns:xlink="http://www.w3.org/1999/xlink" width="24" height="24" viewBox="0 0 24 24">
    <defs>
        <path id="a" d="M0 0h24v24H0z"/>
    </defs>
    <g fill="none" fill-rule="evenodd">
        <g>
            <mask id="b" fill="#fff">
                <use xlink:href="#a"/>
            </mask>
            <path fill="#FFF" d="M12 0C8.741 0 8.332.014 7.052.072 5.775.132 4.903.333 4.14.63a5.888 5.888 0 0 0-2.126 1.384A5.88 5.88 0 0 0 .63 4.14c-.297.763-.5 1.635-.558 2.912C.014 8.332 0 8.742 0 12c0 3.26.014 3.668.072 4.947.059 1.278.262 2.15.558 2.913a5.901 5.901 0 0 0 1.384 2.126c.6.61 1.325 1.083 2.126 1.384.763.296 1.635.5 2.913.558C8.332 23.986 8.741 24 12 24c3.259 0 3.668-.014 4.948-.072 1.277-.059 2.149-.262 2.912-.558a6.137 6.137 0 0 0 3.51-3.51c.297-.763.499-1.635.558-2.913C23.986 15.668 24 15.26 24 12c0-3.259-.014-3.668-.072-4.948-.059-1.277-.261-2.149-.558-2.912a5.888 5.888 0 0 0-1.384-2.126A5.888 5.888 0 0 0 19.86.63c-.763-.297-1.635-.499-2.913-.558C15.668.014 15.259 0 12 0zm0 2.162c3.204 0 3.584.012 4.849.07 1.17.054 1.805.25 2.228.413.521.193.993.5 1.38.898.399.387.705.86.898 1.38.164.423.359 1.058.413 2.228.058 1.265.07 1.645.07 4.85 0 3.203-.012 3.583-.07 4.848-.054 1.17-.249 1.806-.413 2.228a3.975 3.975 0 0 1-2.278 2.278c-.423.164-1.058.36-2.228.413-1.265.058-1.645.07-4.849.07-3.205 0-3.584-.012-4.849-.07-1.17-.053-1.806-.249-2.228-.413a3.715 3.715 0 0 1-1.38-.898 3.715 3.715 0 0 1-.898-1.38c-.164-.422-.36-1.058-.413-2.228-.058-1.265-.07-1.645-.07-4.849s.012-3.584.07-4.849c.053-1.17.249-1.805.413-2.228.193-.52.499-.993.898-1.38a3.715 3.715 0 0 1 1.38-.898c.423-.164 1.058-.36 2.228-.413 1.265-.058 1.645-.07 4.849-.07z" mask="url(#b)"/>
        </g>
        <path fill="#FFF" d="M12 16a4 4 0 1 1 0-8 4 4 0 0 1 0 8m0-10.162a6.162 6.162 0 1 0 0 12.324 6.162 6.162 0 0 0 0-12.324M18.405 4.154a1.44 1.44 0 1 1 0 2.881 1.44 1.44 0 0 1 0-2.88"/>
    </g>
</svg>
