<svg xmlns="http://www.w3.org/2000/svg" width="25" height="21" viewBox="0 0 25 21">
    <path fill="#FFF" fill-rule="evenodd" d="M22.055 3.32A5.284 5.284 0 0 0 24.31.388a10.055 10.055 0 0 1-3.259 1.285A5.04 5.04 0 0 0 17.308 0c-2.83 0-5.127 2.374-5.127 5.301 0 .416.044.82.132 1.208C8.05 6.287 4.272 4.179 1.74.968a5.431 5.431 0 0 0-.694 2.668c0 1.838.906 3.461 2.282 4.412a5.006 5.006 0 0 1-2.324-.661v.065c0 2.57 1.768 4.713 4.116 5.198-.43.124-.884.187-1.352.187-.33 0-.653-.032-.965-.094.653 2.105 2.546 3.638 4.79 3.68A10.078 10.078 0 0 1 0 18.62 14.2 14.2 0 0 0 7.862 21c9.436 0 14.594-8.077 14.594-15.083 0-.23-.005-.461-.014-.687A10.577 10.577 0 0 0 25 2.486a9.957 9.957 0 0 1-2.945.834z"/>
</svg>
